<svg width="106" height="106" viewBox="0 0 106 106" fill="none" xmlns="http://www.w3.org/2000/svg">
<path d="M20.6545 67.2303L20.6544 67.2301L7.34655 53.367L20.6544 39.5039L20.6545 39.5038C23.5372 36.4982 28.58 36.4984 31.4573 39.5064L31.4577 39.5068C34.4404 42.6114 34.4405 47.6772 31.455 50.7846L31.4548 50.7847L29.1447 53.194L28.9788 53.367L29.1447 53.54L31.4548 55.9493L31.455 55.9495C34.4405 59.0568 34.4405 64.1227 31.455 67.23L31.4545 67.2306C30.0169 68.7361 28.098 69.5625 26.0547 69.5625C24.0167 69.5625 22.0976 68.7362 20.6545 67.2303ZM14.1908 53.367V53.4676L14.2605 53.5401L24.0141 63.7007L24.0143 63.7009C25.1121 64.8415 27.0098 64.8369 28.0926 63.7035C29.2141 62.5352 29.2144 60.6447 28.0952 59.4788L22.2308 53.367L28.0952 47.2552C29.2142 46.0895 29.2142 44.199 28.0952 43.0333C27.0016 41.8913 25.1065 41.8983 24.0143 43.033L24.0141 43.0333L14.2605 53.1938L14.1908 53.2664V53.367V53.367Z" fill="#FF0000" stroke="black" stroke-width="0.5"/>
<path d="M74.4873 67.2278L74.4868 67.2272C71.504 64.1226 71.5039 59.0567 74.4894 55.9492L74.4896 55.949L76.7997 53.5397L76.9656 53.3667L76.7997 53.1936L74.4896 50.7843L74.4894 50.7842C71.504 47.6767 71.504 42.6108 74.4894 39.5034L74.4898 39.503C77.3619 36.5005 82.4073 36.4975 85.29 39.5032L85.2901 39.5033L98.5979 53.3667L85.2901 67.2301L85.2899 67.2302C83.8468 68.7362 81.9277 69.5625 79.8898 69.5625C77.8465 69.5625 75.9276 68.7361 74.4873 67.2278ZM83.7137 53.3667L77.8492 59.4786C76.7302 60.6443 76.7302 62.5349 77.8492 63.7006C78.9396 64.8393 80.8348 64.8419 81.9304 63.7006L91.684 53.5399L91.8502 53.3667L91.684 53.1936L81.9304 43.0329L81.9299 43.0324C81.4436 42.5284 80.815 42.2241 80.1372 42.1639V42.1528H79.8872C79.1155 42.1528 78.3903 42.4664 77.8519 43.03C76.7304 44.1983 76.7301 46.0888 77.8492 47.2547C77.8492 47.2547 77.8492 47.2547 77.8492 47.2547L83.7137 53.3667Z" fill="#FF0000" stroke="black" stroke-width="0.5"/>
<path d="M61.5834 32.3047C61.4999 35.9619 58.7946 39.0504 58.7946 39.0504C58.7946 32.2473 53.5 26.8359 53.5 26.8359C53.5 26.8359 53.4286 30.8855 50.7477 34.968C48.0667 25.4428 40.0211 20 40.0211 20C44.0439 34.968 38.6806 40.4121 38.6806 51.2977C38.6806 57.6838 44.0075 63.75 52.1528 63.75C64.2199 63.75 66.5533 59.2547 67.8008 54.1893C69.5199 47.2152 66.9453 39.1078 61.5834 32.3047V32.3047ZM65.1885 53.5248C64.3223 57.0371 63.3442 61.0156 52.1528 61.0156C45.4059 61.0156 41.375 56.0746 41.375 51.2977C41.375 47.6391 42.0325 44.6354 42.7277 41.4553C43.6114 37.4234 44.5168 33.2959 44.1247 27.8367C48.2796 33.6732 49.7588 41.4061 49.7588 41.4061C49.7588 41.4061 53.6267 35.8949 54.6667 33.3355C55.4629 34.9803 56.1945 40.5078 56.1945 45.9766C56.1945 45.9766 59.7727 42.9852 62.4564 38.4871C65.2829 43.6305 66.3014 49.0076 65.1885 53.5248V53.5248ZM62.1654 42.9619L62.416 44.377C62.9764 47.5461 62.6625 51.2922 61.6184 53.9227C61.5133 54.1893 61.26 54.3506 60.9946 54.3506C60.9098 54.3506 60.8235 54.3342 60.7414 54.3014C60.3965 54.1605 60.2281 53.7627 60.3682 53.4127C61.155 51.4316 61.4864 48.6426 61.2762 46.0941C59.9236 47.6281 58.2194 49.2264 54.5778 50.9818L53.8961 51.3086L53.6509 50.5867C53.1632 49.1512 52.6715 47.7006 52.4586 45.6785C51.7298 46.8447 51.0643 47.8838 49.9461 49.4287L49.2617 50.3748L48.7875 49.3029C47.6275 46.6711 46.7437 44.6162 46.0432 42.8088C45.3952 44.9211 44.9115 47.3643 44.9115 52.2984C44.9115 52.6758 44.6084 52.982 44.2379 52.982C43.8647 52.982 43.5643 52.6758 43.5643 52.2984C43.5643 45.8604 44.4063 43.3803 45.2955 40.7539L45.996 38.6895L46.6413 40.5352C47.3352 42.5189 48.2486 44.7051 49.5406 47.6609C50.392 46.44 50.9632 45.5213 51.653 44.4125L53.6981 41.1613V43.4979C53.6981 46.1283 54.1642 47.8469 54.6775 49.4082C58.2598 47.5789 59.6016 45.9875 61.0202 44.3086L62.1654 42.9619V42.9619Z" fill="#FF0000"/>
<path d="M61.5834 32.3047C61.4999 35.9619 58.7946 39.0504 58.7946 39.0504C58.7946 32.2473 53.5 26.8359 53.5 26.8359C53.5 26.8359 53.4286 30.8855 50.7477 34.968C48.0667 25.4428 40.0211 20 40.0211 20C44.0439 34.968 38.6806 40.4121 38.6806 51.2977C38.6806 57.6838 44.0075 63.75 52.1528 63.75C64.2199 63.75 66.5533 59.2547 67.8008 54.1893C69.5199 47.2152 66.9453 39.1078 61.5834 32.3047V32.3047ZM65.1885 53.5248C64.3223 57.0371 63.3442 61.0156 52.1528 61.0156C45.4059 61.0156 41.375 56.0746 41.375 51.2977C41.375 47.6391 42.0325 44.6354 42.7277 41.4553C43.6114 37.4234 44.5168 33.2959 44.1247 27.8367C48.2796 33.6732 49.7588 41.4061 49.7588 41.4061C49.7588 41.4061 53.6267 35.8949 54.6667 33.3355C55.4629 34.9803 56.1945 40.5078 56.1945 45.9766C56.1945 45.9766 59.7727 42.9852 62.4564 38.4871C65.2829 43.6305 66.3014 49.0076 65.1885 53.5248V53.5248ZM62.1654 42.9619L62.416 44.377C62.9764 47.5461 62.6625 51.2922 61.6184 53.9227C61.5133 54.1893 61.26 54.3506 60.9946 54.3506C60.9098 54.3506 60.8235 54.3342 60.7414 54.3014C60.3965 54.1605 60.2281 53.7627 60.3682 53.4127C61.155 51.4316 61.4864 48.6426 61.2762 46.0941C59.9236 47.6281 58.2194 49.2264 54.5778 50.9818L53.8961 51.3086L53.6509 50.5867C53.1632 49.1512 52.6715 47.7006 52.4586 45.6785C51.7298 46.8447 51.0643 47.8838 49.9461 49.4287L49.2617 50.3748L48.7875 49.3029C47.6275 46.6711 46.7437 44.6162 46.0432 42.8088C45.3952 44.9211 44.9115 47.3643 44.9115 52.2984C44.9115 52.6758 44.6084 52.982 44.2379 52.982C43.8647 52.982 43.5643 52.6758 43.5643 52.2984C43.5643 45.8604 44.4063 43.3803 45.2955 40.7539L45.996 38.6895L46.6413 40.5352C47.3352 42.5189 48.2486 44.7051 49.5406 47.6609C50.392 46.44 50.9632 45.5213 51.653 44.4125L53.6981 41.1613V43.4979C53.6981 46.1283 54.1642 47.8469 54.6775 49.4082C58.2598 47.5789 59.6016 45.9875 61.0202 44.3086L62.1654 42.9619V42.9619Z" stroke="#FF0000" stroke-width="0.5"/>
<path d="M61.5834 32.3047C61.4999 35.9619 58.7946 39.0504 58.7946 39.0504C58.7946 32.2473 53.5 26.8359 53.5 26.8359C53.5 26.8359 53.4286 30.8855 50.7477 34.968C48.0667 25.4428 40.0211 20 40.0211 20C44.0439 34.968 38.6806 40.4121 38.6806 51.2977C38.6806 57.6838 44.0075 63.75 52.1528 63.75C64.2199 63.75 66.5533 59.2547 67.8008 54.1893C69.5199 47.2152 66.9453 39.1078 61.5834 32.3047V32.3047ZM65.1885 53.5248C64.3223 57.0371 63.3442 61.0156 52.1528 61.0156C45.4059 61.0156 41.375 56.0746 41.375 51.2977C41.375 47.6391 42.0325 44.6354 42.7277 41.4553C43.6114 37.4234 44.5168 33.2959 44.1247 27.8367C48.2796 33.6732 49.7588 41.4061 49.7588 41.4061C49.7588 41.4061 53.6267 35.8949 54.6667 33.3355C55.4629 34.9803 56.1945 40.5078 56.1945 45.9766C56.1945 45.9766 59.7727 42.9852 62.4564 38.4871C65.2829 43.6305 66.3014 49.0076 65.1885 53.5248V53.5248ZM62.1654 42.9619L62.416 44.377C62.9764 47.5461 62.6625 51.2922 61.6184 53.9227C61.5133 54.1893 61.26 54.3506 60.9946 54.3506C60.9098 54.3506 60.8235 54.3342 60.7414 54.3014C60.3965 54.1605 60.2281 53.7627 60.3682 53.4127C61.155 51.4316 61.4864 48.6426 61.2762 46.0941C59.9236 47.6281 58.2194 49.2264 54.5778 50.9818L53.8961 51.3086L53.6509 50.5867C53.1632 49.1512 52.6715 47.7006 52.4586 45.6785C51.7298 46.8447 51.0643 47.8838 49.9461 49.4287L49.2617 50.3748L48.7875 49.3029C47.6275 46.6711 46.7437 44.6162 46.0432 42.8088C45.3952 44.9211 44.9115 47.3643 44.9115 52.2984C44.9115 52.6758 44.6084 52.982 44.2379 52.982C43.8647 52.982 43.5643 52.6758 43.5643 52.2984C43.5643 45.8604 44.4063 43.3803 45.2955 40.7539L45.996 38.6895L46.6413 40.5352C47.3352 42.5189 48.2486 44.7051 49.5406 47.6609C50.392 46.44 50.9632 45.5213 51.653 44.4125L53.6981 41.1613V43.4979C53.6981 46.1283 54.1642 47.8469 54.6775 49.4082C58.2598 47.5789 59.6016 45.9875 61.0202 44.3086L62.1654 42.9619V42.9619Z" stroke="black" stroke-width="0.5"/>
<path d="M40.0278 66.875H53.5H66.9722V70H40.0278V66.875Z" fill="#FF0000" stroke="black" stroke-width="0.5" stroke-linejoin="round"/>
<path d="M105.056 46.1462C104.878 44.7771 103.623 43.8119 102.254 43.9905C100.885 44.1691 99.9198 45.4238 100.098 46.7929L105.056 46.1462ZM96.8967 34.8182C97.4255 36.0936 98.8882 36.6988 100.164 36.1699C101.439 35.641 102.044 34.1784 101.515 32.903L96.8967 34.8182ZM94.6523 21.0375C93.811 19.9427 92.2415 19.7372 91.1467 20.5785C90.0519 21.4198 89.8464 22.9893 90.6877 24.0841L94.6523 21.0375ZM81.9159 15.3123C83.0107 16.1536 84.5802 15.9481 85.4215 14.8533C86.2628 13.7586 86.0573 12.189 84.9625 11.3477L81.9159 15.3123ZM73.097 4.48471C71.8216 3.95582 70.359 4.56099 69.8301 5.83639C69.3012 7.11179 69.9064 8.57445 71.1818 9.10334L73.097 4.48471ZM59.2071 5.90161C60.5762 6.0802 61.8309 5.11509 62.0095 3.74598C62.1881 2.37687 61.2229 1.1222 59.8538 0.943616L59.2071 5.90161ZM46.1462 0.943615C44.7771 1.1222 43.8119 2.37687 43.9905 3.74598C44.1691 5.11509 45.4238 6.0802 46.7929 5.90161L46.1462 0.943615ZM34.8182 9.10334C36.0936 8.57445 36.6988 7.11179 36.1699 5.83639C35.641 4.56099 34.1784 3.95582 32.903 4.48471L34.8182 9.10334ZM21.0375 11.3477C19.9427 12.189 19.7372 13.7585 20.5785 14.8533C21.4198 15.9481 22.9893 16.1536 24.0841 15.3123L21.0375 11.3477ZM15.3123 24.0841C16.1536 22.9893 15.9481 21.4198 14.8533 20.5785C13.7586 19.7372 12.189 19.9427 11.3477 21.0375L15.3123 24.0841ZM4.48471 32.903C3.95582 34.1784 4.56099 35.641 5.83639 36.1699C7.11179 36.6988 8.57445 36.0936 9.10334 34.8182L4.48471 32.903ZM5.90161 46.7929C6.0802 45.4238 5.11509 44.1691 3.74598 43.9905C2.37687 43.8119 1.1222 44.7771 0.943616 46.1462L5.90161 46.7929ZM0.943615 59.8538C1.1222 61.2229 2.37687 62.1881 3.74598 62.0095C5.11509 61.8309 6.0802 60.5762 5.90161 59.2071L0.943615 59.8538ZM9.10334 71.1818C8.57445 69.9064 7.11179 69.3012 5.83639 69.8301C4.56099 70.359 3.95582 71.8216 4.48471 73.097L9.10334 71.1818ZM11.3477 84.9625C12.189 86.0573 13.7585 86.2628 14.8533 85.4215C15.9481 84.5802 16.1536 83.0107 15.3123 81.9159L11.3477 84.9625ZM24.0841 90.6877C22.9893 89.8464 21.4198 90.0519 20.5785 91.1467C19.7372 92.2414 19.9427 93.811 21.0375 94.6523L24.0841 90.6877ZM32.903 101.515C34.1784 102.044 35.641 101.439 36.1699 100.164C36.6988 98.8882 36.0936 97.4255 34.8182 96.8967L32.903 101.515ZM46.7929 100.098C45.4238 99.9198 44.1691 100.885 43.9905 102.254C43.8119 103.623 44.7771 104.878 46.1462 105.056L46.7929 100.098ZM59.8538 105.056C61.2229 104.878 62.1881 103.623 62.0095 102.254C61.8309 100.885 60.5762 99.9198 59.2071 100.098L59.8538 105.056ZM71.1818 96.8967C69.9064 97.4255 69.3012 98.8882 69.8301 100.164C70.359 101.439 71.8216 102.044 73.097 101.515L71.1818 96.8967ZM84.9625 94.6523C86.0573 93.811 86.2628 92.2415 85.4215 91.1467C84.5802 90.0519 83.0107 89.8464 81.9159 90.6877L84.9625 94.6523ZM90.6877 81.9159C89.8464 83.0107 90.0519 84.5802 91.1467 85.4215C92.2414 86.2628 93.811 86.0573 94.6523 84.9625L90.6877 81.9159ZM101.515 73.097C102.044 71.8216 101.439 70.359 100.164 69.8301C98.8882 69.3012 97.4255 69.9064 96.8967 71.1818L101.515 73.097ZM100.098 59.2071C99.9198 60.5762 100.885 61.8309 102.254 62.0095C103.623 62.1881 104.878 61.2229 105.056 59.8538L100.098 59.2071ZM105.5 53C105.5 50.6782 105.349 48.3905 105.056 46.1462L100.098 46.7929C100.363 48.8233 100.5 50.8951 100.5 53H105.5ZM101.515 32.903C99.7448 28.6335 97.4278 24.6493 94.6523 21.0375L90.6877 24.0841C93.2 27.3535 95.2959 30.958 96.8967 34.8182L101.515 32.903ZM84.9625 11.3477C81.3507 8.57218 77.3665 6.25519 73.097 4.48471L71.1818 9.10334C75.042 10.7041 78.6465 12.8 81.9159 15.3123L84.9625 11.3477ZM59.8538 0.943616C57.6095 0.650868 55.3218 0.5 53 0.5V5.5C55.1049 5.5 57.1767 5.63676 59.2071 5.90161L59.8538 0.943616ZM53 0.5C50.6782 0.5 48.3905 0.650868 46.1462 0.943615L46.7929 5.90161C48.8233 5.63676 50.8951 5.5 53 5.5V0.5ZM32.903 4.48471C28.6335 6.25519 24.6493 8.57218 21.0375 11.3477L24.0841 15.3123C27.3535 12.8 30.958 10.7041 34.8182 9.10334L32.903 4.48471ZM11.3477 21.0375C8.57218 24.6493 6.25519 28.6335 4.48471 32.903L9.10334 34.8182C10.7041 30.958 12.8 27.3535 15.3123 24.0841L11.3477 21.0375ZM0.943616 46.1462C0.650868 48.3905 0.5 50.6782 0.5 53H5.5C5.5 50.8951 5.63676 48.8233 5.90161 46.7929L0.943616 46.1462ZM0.5 53C0.5 55.3218 0.650868 57.6095 0.943615 59.8538L5.90161 59.2071C5.63676 57.1767 5.5 55.1049 5.5 53H0.5ZM4.48471 73.097C6.25519 77.3665 8.57218 81.3507 11.3477 84.9625L15.3123 81.9159C12.8 78.6465 10.7041 75.042 9.10334 71.1818L4.48471 73.097ZM21.0375 94.6523C24.6493 97.4278 28.6335 99.7448 32.903 101.515L34.8182 96.8967C30.958 95.2959 27.3535 93.2 24.0841 90.6877L21.0375 94.6523ZM46.1462 105.056C48.3905 105.349 50.6782 105.5 53 105.5V100.5C50.8951 100.5 48.8233 100.363 46.7929 100.098L46.1462 105.056ZM53 105.5C55.3218 105.5 57.6095 105.349 59.8538 105.056L59.2071 100.098C57.1767 100.363 55.1049 100.5 53 100.5V105.5ZM73.097 101.515C77.3665 99.7448 81.3507 97.4278 84.9625 94.6523L81.9159 90.6877C78.6465 93.2 75.042 95.2959 71.1818 96.8967L73.097 101.515ZM94.6523 84.9625C97.4278 81.3507 99.7448 77.3665 101.515 73.097L96.8967 71.1818C95.2959 75.042 93.2 78.6465 90.6877 81.9159L94.6523 84.9625ZM105.056 59.8538C105.349 57.6095 105.5 55.3218 105.5 53H100.5C100.5 55.1049 100.363 57.1767 100.098 59.2071L105.056 59.8538Z" fill="#5F1515" style="mix-blend-mode:darken"/>
</svg>
