<svg width="40" height="40" viewBox="0 0 40 40" fill="none" xmlns="http://www.w3.org/2000/svg">
<path d="M26.5402 29.1741L29.8214 13.7054C30.1116 12.3438 29.3304 11.808 28.4375 12.1429L9.1518 19.5759C7.83484 20.0893 7.85715 20.8259 8.92859 21.1607L13.8616 22.7009L25.3125 15.4911C25.8482 15.1339 26.3393 15.3348 25.9375 15.692L16.6741 24.0625L16.317 29.1518C16.8304 29.1518 17.0536 28.9286 17.3214 28.6608L19.7321 26.3393L24.7321 30.0224C25.6473 30.5358 26.2946 30.2679 26.5402 29.1742V29.1741ZM40 20C40 31.0491 31.0491 40 20 40C8.9509 40 0 31.0491 0 20C0 8.9509 8.9509 0 20 0C31.0491 0 40 8.9509 40 20Z" fill="black"/>
</svg>
