<svg width="38" height="38" viewBox="0 0 38 38" fill="none" xmlns="http://www.w3.org/2000/svg">
<path d="M24.3685 20.9148C24.7891 20.9148 28.8216 23.0013 28.9948 23.2959C29.0443 23.4186 29.0443 23.5659 29.0443 23.6641C29.0443 24.2778 28.8464 24.9652 28.6237 25.5298C28.0547 26.9044 25.7539 27.7881 24.3438 27.7881C23.1563 27.7881 20.7071 26.7571 19.6433 26.2662C16.1055 24.6705 13.9037 21.9458 11.7761 18.8282C10.836 17.4535 9.99483 15.7597 10.0196 14.0659V13.8695C10.0691 12.2494 10.6628 11.0957 11.8503 9.99098C12.2214 9.64731 12.6173 9.45094 13.1368 9.45094C13.4337 9.45094 13.7305 9.52457 14.0522 9.52457C14.7201 9.52457 14.8438 9.72094 15.0912 10.3592C15.2644 10.7765 16.5261 14.115 16.5261 14.3605C16.5261 15.2933 14.8191 16.3489 14.8191 16.9135C14.8191 17.0362 14.8686 17.159 14.9428 17.2817C15.487 18.4354 16.5261 19.761 17.4662 20.6448C18.6042 21.7249 19.8165 22.4367 21.2019 23.1241C21.3751 23.2223 21.5483 23.2959 21.7462 23.2959C22.4883 23.2959 23.7253 20.9148 24.3685 20.9148H24.3685ZM19.3464 33.9251C27.9062 33.9251 34.8828 27.0026 34.8828 18.5091C34.8828 10.0156 27.9062 3.09311 19.3464 3.09311C10.7865 3.09311 3.8099 10.0156 3.8099 18.5091C3.8099 21.7494 4.84896 24.9161 6.77863 27.5427L4.8242 33.2624L10.8112 31.3722C13.3346 33.0169 16.3281 33.9252 19.3464 33.9252V33.9251ZM19.3464 4.2935e-05C29.638 4.2935e-05 38 8.2972 38 18.5091C38 28.7209 29.638 37.0181 19.3464 37.0181C16.2044 37.0181 13.0873 36.2326 10.3164 34.7106L0 38L3.36457 28.0581C1.60808 25.186 0.692709 21.8721 0.692709 18.509C0.692709 8.29716 9.0547 0 19.3464 0V4.2935e-05Z" fill="black"/>
</svg>
