<svg width="38" height="38" viewBox="0 0 38 38" fill="none" xmlns="http://www.w3.org/2000/svg">
<path d="M19 0C29.4896 0 38 8.72488 38 19.4788C38 28.0769 32.5573 35.3815 25.0117 37.9685C24.0469 38.1461 23.7005 37.5374 23.7005 37.0301C23.7005 36.396 23.7252 34.2909 23.7252 31.6785C23.7252 29.8523 23.1315 28.6856 22.4388 28.0769C26.6692 27.595 31.1224 25.9464 31.1224 18.4643C31.1224 16.3338 30.3802 14.6091 29.1679 13.2395C29.3658 12.7323 30.0091 10.754 28.97 8.06549C27.3867 7.55821 23.75 10.0692 23.75 10.0692C22.2409 9.63802 20.6081 9.40975 19 9.40975C17.3919 9.40975 15.7591 9.63802 14.25 10.0692C14.25 10.0692 10.6133 7.55826 9.03001 8.06549C7.99095 10.754 8.63417 12.7323 8.83211 13.2395C7.61987 14.6091 6.87768 16.3338 6.87768 18.4643C6.87768 25.9211 11.3061 27.595 15.5365 28.0769C14.9923 28.5842 14.4975 29.4465 14.3243 30.6893C13.2357 31.1966 10.4649 32.0589 8.80735 29.0661C7.76829 27.2146 5.88806 27.0624 5.88806 27.0624C4.0326 27.0371 5.76437 28.2545 5.76437 28.2545C7.00133 28.8378 7.86721 31.0951 7.86721 31.0951C8.98048 34.5699 14.2748 33.4032 14.2748 33.4032C14.2748 35.0264 14.2995 36.5482 14.2995 37.0301C14.2995 37.5374 13.9531 38.1461 12.9883 37.9685C5.44269 35.3815 0 28.0769 0 19.4788C0 8.72488 8.51039 0 19 0H19ZM7.19927 27.9755C7.24875 27.874 7.17455 27.7472 7.02609 27.6711C6.87764 27.6204 6.75394 27.6458 6.70446 27.7219C6.65497 27.8233 6.72918 27.9502 6.87764 28.0262C7.00133 28.1023 7.14978 28.077 7.19927 27.9755ZM7.96618 28.8378C8.06515 28.7617 8.04039 28.5842 7.9167 28.432C7.79301 28.3052 7.61983 28.2545 7.52086 28.3559C7.42189 28.432 7.44665 28.6095 7.57034 28.7617C7.69404 28.8885 7.86721 28.9393 7.96618 28.8378ZM8.70838 29.9791C8.83207 29.8777 8.83207 29.6748 8.70838 29.4972C8.60941 29.3197 8.41151 29.2436 8.28782 29.3451C8.16412 29.4211 8.16412 29.6241 8.28782 29.8016C8.41151 29.9791 8.60945 30.0552 8.70838 29.9791ZM9.74744 31.0444C9.84641 30.9429 9.79692 30.7147 9.64847 30.5625C9.47529 30.385 9.25263 30.3596 9.15366 30.4864C9.02997 30.5879 9.07945 30.8162 9.25263 30.9683C9.42581 31.1459 9.64847 31.1712 9.74744 31.0444ZM11.1576 31.6785C11.2071 31.5263 11.0586 31.3487 10.8359 31.2727C10.638 31.2219 10.4154 31.298 10.3659 31.4502C10.3164 31.6024 10.4649 31.7799 10.6875 31.8306C10.8854 31.9067 11.1081 31.8306 11.1576 31.6784V31.6785ZM12.7162 31.8053C12.7162 31.6277 12.5183 31.5009 12.2956 31.5263C12.0729 31.5263 11.8998 31.6531 11.8998 31.8053C11.8998 31.9828 12.0729 32.1096 12.3203 32.0843C12.543 32.0843 12.7162 31.9575 12.7162 31.8053ZM14.1511 31.5517C14.1263 31.3995 13.9284 31.2981 13.7057 31.3234C13.4831 31.3741 13.3347 31.5263 13.3594 31.7038C13.3841 31.856 13.5821 31.9574 13.8047 31.9067C14.0274 31.856 14.1758 31.7038 14.1511 31.5516V31.5517Z" fill="black"/>
</svg>
