<svg width="40" height="41" viewBox="0 0 40 41" fill="none" xmlns="http://www.w3.org/2000/svg">
<path d="M12.1663 1.29281H12.6663V1.2832H28.5711C34.5357 1.2832 39.4181 6.26789 39.4181 12.3952V29.1692C39.4181 35.2968 34.5354 40.2812 28.5805 40.2812H12.1663C6.20041 40.2812 1.30988 35.3048 1.30988 29.1884V12.4048C1.30988 6.27805 6.20121 1.29281 12.1663 1.29281ZM3.3182 12.4135V12.4144V29.1981C3.3182 34.1842 7.24576 38.2148 12.1663 38.2148H28.5805C33.4837 38.2148 37.4098 34.1827 37.4098 29.1788V12.4048C37.4098 7.4006 33.4833 3.36885 28.5711 3.36885H12.1663C7.25355 3.36885 3.32813 7.40093 3.3182 12.4135ZM31.4025 8.4829C31.4025 7.89297 31.8566 7.44489 32.4067 7.44489C32.9568 7.44489 33.4109 7.89297 33.4109 8.4829C33.4109 9.07283 32.9568 9.52092 32.4067 9.52092C31.8566 9.52092 31.4025 9.07283 31.4025 8.4829ZM10.3443 20.787C10.3443 15.1313 14.8689 10.5209 20.3734 10.5209C25.8779 10.5209 30.4025 15.1313 30.4025 20.787C30.4025 26.4428 25.8779 31.0532 20.3734 31.0532C14.8689 31.0532 10.3443 26.4428 10.3443 20.787ZM28.3942 20.787C28.3942 16.2534 24.834 12.597 20.3734 12.597C15.9128 12.597 12.3526 16.2534 12.3526 20.787C12.3526 25.3206 15.9128 28.9771 20.3734 28.9771C24.834 28.9771 28.3942 25.3206 28.3942 20.787Z" fill="#070707" stroke="#070707"/>
</svg>
