<svg width="22" height="20" viewBox="0 0 22 20" fill="none" xmlns="http://www.w3.org/2000/svg">
<path d="M9.79329 0.859336C10.0931 -0.0609409 11.3951 -0.06094 11.6949 0.859337L13.446 6.23373C13.5801 6.64536 13.9639 6.92394 14.3968 6.92394H20.0576C21.0269 6.92394 21.4293 8.16497 20.6443 8.73373L16.0694 12.0484C15.7179 12.303 15.5709 12.7553 15.7053 13.168L17.4539 18.5346C17.7539 19.4554 16.7006 20.2224 15.9164 19.6542L11.3308 16.3318C10.9808 16.0782 10.5074 16.0782 10.1574 16.3318L5.57183 19.6542C4.78757 20.2224 3.73428 19.4554 4.0343 18.5346L5.78288 13.168C5.91733 12.7553 5.77025 12.303 5.41879 12.0484L0.843917 8.73373C0.0589104 8.16497 0.461241 6.92394 1.43064 6.92394H7.09139C7.52432 6.92394 7.90808 6.64536 8.0422 6.23373L9.79329 0.859336Z" fill="#070707"/>
</svg>
