<?xml version="1.0" encoding="utf-8"?><!DOCTYPE svg PUBLIC "-//W3C//DTD SVG 1.1//EN" "http://www.w3.org/Graphics/SVG/1.1/DTD/svg11.dtd"><svg version="1.1" xmlns="http://www.w3.org/2000/svg" xmlns:xlink="http://www.w3.org/1999/xlink" width="28" height="28" viewBox="0 0 28 28" data-code="62150" data-tags="telegram"><g fill="#444" transform="scale(0.02734375 0.02734375)"><path d="M679.429 746.857l84-396c7.429-34.857-12.571-48.571-35.429-40l-493.714 190.286c-33.714 13.143-33.143 32-5.714 40.571l126.286 39.429 293.143-184.571c13.714-9.143 26.286-4 16 5.143l-237.143 214.286-9.143 130.286c13.143 0 18.857-5.714 25.714-12.571l61.714-59.429 128 94.286c23.429 13.143 40 6.286 46.286-21.714zM1024 512c0 282.857-229.143 512-512 512s-512-229.143-512-512 229.143-512 512-512 512 229.143 512 512z" /></g></svg>